<svg width="1070pt" height="400pt" viewBox="0.00 0.00 1069.80 400.00" xmlns="http://www.w3.org/2000/svg" xmlns:xlink="http://www.w3.org/1999/xlink">
<g id="graph0" class="graph" transform="scale(1 1) rotate(0) translate(4 396)">
<title>Tree</title>
<polygon fill="white" stroke="none" points="-4,4 -4,-396 1065.8,-396 1065.8,4 -4,4"/>
<!-- 0 -->
<g id="node1" class="node">
<title>0</title>
<path fill="#f7dac4" stroke="black" d="M578.16,-392C578.16,-392 454.64,-392 454.64,-392 448.64,-392 442.64,-386 442.64,-380 442.64,-380 442.64,-328.8 442.64,-328.8 442.64,-322.8 448.64,-316.8 454.64,-316.8 454.64,-316.8 578.16,-316.8 578.16,-316.8 584.16,-316.8 590.16,-322.8 590.16,-328.8 590.16,-328.8 590.16,-380 590.16,-380 590.16,-386 584.16,-392 578.16,-392"/>
<text text-anchor="start" x="450.64" y="-375.4" font-family="Helvetica,sans-Serif" font-size="14.00">wb97_vert1 ≤ -0.013</text>
<text text-anchor="start" x="462.11" y="-358.6" font-family="Helvetica,sans-Serif" font-size="14.00">mse = 10004.838</text>
<text text-anchor="start" x="462.89" y="-341.8" font-family="Helvetica,sans-Serif" font-size="14.00">samples = 25742</text>
<text text-anchor="start" x="474.17" y="-325" font-family="Helvetica,sans-Serif" font-size="14.00">value = 438.3</text>
</g>
<!-- 1 -->
<g id="node2" class="node">
<title>1</title>
<path fill="#f0b78f" stroke="black" d="M448.16,-280.8C448.16,-280.8 324.64,-280.8 324.64,-280.8 318.64,-280.8 312.64,-274.8 312.64,-268.8 312.64,-268.8 312.64,-217.6 312.64,-217.6 312.64,-211.6 318.64,-205.6 324.64,-205.6 324.64,-205.6 448.16,-205.6 448.16,-205.6 454.16,-205.6 460.16,-211.6 460.16,-217.6 460.16,-217.6 460.16,-268.8 460.16,-268.8 460.16,-274.8 454.16,-280.8 448.16,-280.8"/>
<text text-anchor="start" x="320.64" y="-264.2" font-family="Helvetica,sans-Serif" font-size="14.00">wb97_vert1 ≤ -0.044</text>
<text text-anchor="start" x="336" y="-247.4" font-family="Helvetica,sans-Serif" font-size="14.00">mse = 7649.185</text>
<text text-anchor="start" x="332.89" y="-230.6" font-family="Helvetica,sans-Serif" font-size="14.00">samples = 10738</text>
<text text-anchor="start" x="336.38" y="-213.8" font-family="Helvetica,sans-Serif" font-size="14.00">value = 520.187</text>
</g>
<!-- 0&#45;&gt;1 -->
<g id="edge1" class="edge">
<title>0-&gt;1</title>
<path fill="none" stroke="black" d="M472.39,-316.43C461.69,-307.45 450.15,-297.75 439.1,-288.47"/>
<polygon fill="black" stroke="black" points="441.43,-285.86 431.52,-282.11 436.93,-291.22 441.43,-285.86"/>
<text text-anchor="middle" x="432.53" y="-301.84" font-family="Helvetica,sans-Serif" font-size="14.00">True</text>
</g>
<!-- 8 -->
<g id="node9" class="node">
<title>8</title>
<path fill="#fcf2eb" stroke="black" d="M711.83,-280.8C711.83,-280.8 592.97,-280.8 592.97,-280.8 586.97,-280.8 580.97,-274.8 580.97,-268.8 580.97,-268.8 580.97,-217.6 580.97,-217.6 580.97,-211.6 586.97,-205.6 592.97,-205.6 592.97,-205.6 711.83,-205.6 711.83,-205.6 717.83,-205.6 723.83,-211.6 723.83,-217.6 723.83,-217.6 723.83,-268.8 723.83,-268.8 723.83,-274.8 717.83,-280.8 711.83,-280.8"/>
<text text-anchor="start" x="588.97" y="-264.2" font-family="Helvetica,sans-Serif" font-size="14.00">wb97_vert1 ≤ 0.012</text>
<text text-anchor="start" x="602" y="-247.4" font-family="Helvetica,sans-Serif" font-size="14.00">mse = 3457.392</text>
<text text-anchor="start" x="598.89" y="-230.6" font-family="Helvetica,sans-Serif" font-size="14.00">samples = 15004</text>
<text text-anchor="start" x="602.38" y="-213.8" font-family="Helvetica,sans-Serif" font-size="14.00">value = 379.696</text>
</g>
<!-- 0&#45;&gt;8 -->
<g id="edge8" class="edge">
<title>0-&gt;8</title>
<path fill="none" stroke="black" d="M562.44,-316.43C573.74,-307.36 585.95,-297.56 597.61,-288.19"/>
<polygon fill="black" stroke="black" points="599.62,-291.07 605.22,-282.08 595.23,-285.61 599.62,-291.07"/>
<text text-anchor="middle" x="603.69" y="-301.78" font-family="Helvetica,sans-Serif" font-size="14.00">False</text>
</g>
<!-- 2 -->
<g id="node3" class="node">
<title>2</title>
<path fill="#e99456" stroke="black" d="M249.72,-169.6C249.72,-169.6 137.08,-169.6 137.08,-169.6 131.08,-169.6 125.08,-163.6 125.08,-157.6 125.08,-157.6 125.08,-106.4 125.08,-106.4 125.08,-100.4 131.08,-94.4 137.08,-94.4 137.08,-94.4 249.72,-94.4 249.72,-94.4 255.72,-94.4 261.72,-100.4 261.72,-106.4 261.72,-106.4 261.72,-157.6 261.72,-157.6 261.72,-163.6 255.72,-169.6 249.72,-169.6"/>
<text text-anchor="start" x="133.08" y="-153" font-family="Helvetica,sans-Serif" font-size="14.00">SubFP298 ≤ 0.602</text>
<text text-anchor="start" x="143" y="-136.2" font-family="Helvetica,sans-Serif" font-size="14.00">mse = 9989.648</text>
<text text-anchor="start" x="143.78" y="-119.4" font-family="Helvetica,sans-Serif" font-size="14.00">samples = 2771</text>
<text text-anchor="start" x="143.38" y="-102.6" font-family="Helvetica,sans-Serif" font-size="14.00">value = 606.076</text>
</g>
<!-- 1&#45;&gt;2 -->
<g id="edge2" class="edge">
<title>1-&gt;2</title>
<path fill="none" stroke="black" d="M321.06,-205.23C304.08,-195.62 285.66,-185.2 268.23,-175.34"/>
<polygon fill="black" stroke="black" points="270.42,-172.56 259.99,-170.68 266.97,-178.65 270.42,-172.56"/>
</g>
<!-- 5 -->
<g id="node6" class="node">
<title>5</title>
<path fill="#f3c4a2" stroke="black" d="M432.41,-169.6C432.41,-169.6 340.38,-169.6 340.38,-169.6 334.38,-169.6 328.38,-163.6 328.38,-157.6 328.38,-157.6 328.38,-106.4 328.38,-106.4 328.38,-100.4 334.38,-94.4 340.38,-94.4 340.38,-94.4 432.41,-94.4 432.41,-94.4 438.41,-94.4 444.41,-100.4 444.41,-106.4 444.41,-106.4 444.41,-157.6 444.41,-157.6 444.41,-163.6 438.41,-169.6 432.41,-169.6"/>
<text text-anchor="start" x="346.32" y="-153" font-family="Helvetica,sans-Serif" font-size="14.00">FP201 ≤ 0.5</text>
<text text-anchor="start" x="339.89" y="-136.2" font-family="Helvetica,sans-Serif" font-size="14.00">mse = 3376.98</text>
<text text-anchor="start" x="336.78" y="-119.4" font-family="Helvetica,sans-Serif" font-size="14.00">samples = 7967</text>
<text text-anchor="start" x="336.38" y="-102.6" font-family="Helvetica,sans-Serif" font-size="14.00">value = 490.313</text>
</g>
<!-- 1&#45;&gt;5 -->
<g id="edge5" class="edge">
<title>1-&gt;5</title>
<path fill="none" stroke="black" d="M386.4,-205.23C386.4,-197.58 386.4,-189.41 386.4,-181.43"/>
<polygon fill="black" stroke="black" points="389.9,-181.45 386.4,-171.45 382.9,-181.45 389.9,-181.45"/>
</g>
<!-- 3 -->
<g id="node4" class="node">
<title>3</title>
<path fill="#eda978" stroke="black" d="M104.8,-58.4C104.8,-58.4 12,-58.4 12,-58.4 6,-58.4 0,-52.4 0,-46.4 0,-46.4 0,-12 0,-12 0,-6 6,0 12,0 12,0 104.8,0 104.8,0 110.8,0 116.8,-6 116.8,-12 116.8,-12 116.8,-46.4 116.8,-46.4 116.8,-52.4 110.8,-58.4 104.8,-58.4"/>
<text text-anchor="start" x="8" y="-41.8" font-family="Helvetica,sans-Serif" font-size="14.00">mse = 8037.072</text>
<text text-anchor="start" x="8.78" y="-25" font-family="Helvetica,sans-Serif" font-size="14.00">samples = 1283</text>
<text text-anchor="start" x="8.38" y="-8.2" font-family="Helvetica,sans-Serif" font-size="14.00">value = 554.788</text>
</g>
<!-- 2&#45;&gt;3 -->
<g id="edge3" class="edge">
<title>2-&gt;3</title>
<path fill="none" stroke="black" d="M143.9,-94.04C131.3,-84.63 117.8,-74.56 105.34,-65.25"/>
<polygon fill="black" stroke="black" points="107.79,-62.71 97.69,-59.54 103.61,-68.32 107.79,-62.71"/>
</g>
<!-- 4 -->
<g id="node5" class="node">
<title>4</title>
<path fill="#e58139" stroke="black" d="M239.8,-58.4C239.8,-58.4 147,-58.4 147,-58.4 141,-58.4 135,-52.4 135,-46.4 135,-46.4 135,-12 135,-12 135,-6 141,0 147,0 147,0 239.8,0 239.8,0 245.8,0 251.8,-6 251.8,-12 251.8,-12 251.8,-46.4 251.8,-46.4 251.8,-52.4 245.8,-58.4 239.8,-58.4"/>
<text text-anchor="start" x="143" y="-41.8" font-family="Helvetica,sans-Serif" font-size="14.00">mse = 7449.654</text>
<text text-anchor="start" x="143.78" y="-25" font-family="Helvetica,sans-Serif" font-size="14.00">samples = 1488</text>
<text text-anchor="start" x="143.38" y="-8.2" font-family="Helvetica,sans-Serif" font-size="14.00">value = 650.297</text>
</g>
<!-- 2&#45;&gt;4 -->
<g id="edge4" class="edge">
<title>2-&gt;4</title>
<path fill="none" stroke="black" d="M193.4,-94.04C193.4,-86.19 193.4,-77.86 193.4,-69.91"/>
<polygon fill="black" stroke="black" points="196.9,-70.14 193.4,-60.14 189.9,-70.14 196.9,-70.14"/>
</g>
<!-- 6 -->
<g id="node7" class="node">
<title>6</title>
<path fill="#f5cdb0" stroke="black" d="M374.8,-58.4C374.8,-58.4 282,-58.4 282,-58.4 276,-58.4 270,-52.4 270,-46.4 270,-46.4 270,-12 270,-12 270,-6 276,0 282,0 282,0 374.8,0 374.8,0 380.8,0 386.8,-6 386.8,-12 386.8,-12 386.8,-46.4 386.8,-46.4 386.8,-52.4 380.8,-58.4 374.8,-58.4"/>
<text text-anchor="start" x="278" y="-41.8" font-family="Helvetica,sans-Serif" font-size="14.00">mse = 2479.049</text>
<text text-anchor="start" x="278.78" y="-25" font-family="Helvetica,sans-Serif" font-size="14.00">samples = 5028</text>
<text text-anchor="start" x="278.38" y="-8.2" font-family="Helvetica,sans-Serif" font-size="14.00">value = 469.184</text>
</g>
<!-- 5&#45;&gt;6 -->
<g id="edge6" class="edge">
<title>5-&gt;6</title>
<path fill="none" stroke="black" d="M365.13,-94.04C360.35,-85.73 355.27,-76.89 350.45,-68.53"/>
<polygon fill="black" stroke="black" points="353.53,-66.86 345.51,-59.94 347.47,-70.36 353.53,-66.86"/>
</g>
<!-- 7 -->
<g id="node8" class="node">
<title>7</title>
<path fill="#f0b58a" stroke="black" d="M509.8,-58.4C509.8,-58.4 417,-58.4 417,-58.4 411,-58.4 405,-52.4 405,-46.4 405,-46.4 405,-12 405,-12 405,-6 411,0 417,0 417,0 509.8,0 509.8,0 515.8,0 521.8,-6 521.8,-12 521.8,-12 521.8,-46.4 521.8,-46.4 521.8,-52.4 515.8,-58.4 509.8,-58.4"/>
<text text-anchor="start" x="413" y="-41.8" font-family="Helvetica,sans-Serif" font-size="14.00">mse = 2842.644</text>
<text text-anchor="start" x="413.78" y="-25" font-family="Helvetica,sans-Serif" font-size="14.00">samples = 2939</text>
<text text-anchor="start" x="413.38" y="-8.2" font-family="Helvetica,sans-Serif" font-size="14.00">value = 526.462</text>
</g>
<!-- 5&#45;&gt;7 -->
<g id="edge7" class="edge">
<title>5-&gt;7</title>
<path fill="none" stroke="black" d="M414.63,-94.04C421.19,-85.46 428.17,-76.31 434.75,-67.71"/>
<polygon fill="black" stroke="black" points="437.47,-69.9 440.76,-59.83 431.91,-65.66 437.47,-69.9"/>
</g>
<!-- 9 -->
<g id="node10" class="node">
<title>9</title>
<path fill="#fae7da" stroke="black" d="M714.16,-169.6C714.16,-169.6 590.64,-169.6 590.64,-169.6 584.64,-169.6 578.64,-163.6 578.64,-157.6 578.64,-157.6 578.64,-106.4 578.64,-106.4 578.64,-100.4 584.64,-94.4 590.64,-94.4 590.64,-94.4 714.16,-94.4 714.16,-94.4 720.16,-94.4 726.16,-100.4 726.16,-106.4 726.16,-106.4 726.16,-157.6 726.16,-157.6 726.16,-163.6 720.16,-169.6 714.16,-169.6"/>
<text text-anchor="start" x="586.64" y="-153" font-family="Helvetica,sans-Serif" font-size="14.00">wb97_vert1 ≤ -0.005</text>
<text text-anchor="start" x="602" y="-136.2" font-family="Helvetica,sans-Serif" font-size="14.00">mse = 2260.488</text>
<text text-anchor="start" x="602.78" y="-119.4" font-family="Helvetica,sans-Serif" font-size="14.00">samples = 7849</text>
<text text-anchor="start" x="602.38" y="-102.6" font-family="Helvetica,sans-Serif" font-size="14.00">value = 405.363</text>
</g>
<!-- 8&#45;&gt;9 -->
<g id="edge9" class="edge">
<title>8-&gt;9</title>
<path fill="none" stroke="black" d="M652.4,-205.23C652.4,-197.58 652.4,-189.41 652.4,-181.43"/>
<polygon fill="black" stroke="black" points="655.9,-181.45 652.4,-171.45 648.9,-181.45 655.9,-181.45"/>
</g>
<!-- 12 -->
<g id="node13" class="node">
<title>12</title>
<path fill="#fffefd" stroke="black" d="M925.88,-169.6C925.88,-169.6 810.92,-169.6 810.92,-169.6 804.92,-169.6 798.92,-163.6 798.92,-157.6 798.92,-157.6 798.92,-106.4 798.92,-106.4 798.92,-100.4 804.92,-94.4 810.92,-94.4 810.92,-94.4 925.88,-94.4 925.88,-94.4 931.88,-94.4 937.88,-100.4 937.88,-106.4 937.88,-106.4 937.88,-157.6 937.88,-157.6 937.88,-163.6 931.88,-169.6 925.88,-169.6"/>
<text text-anchor="start" x="806.92" y="-153" font-family="Helvetica,sans-Serif" font-size="14.00">SubFPC53 ≤ 2.593</text>
<text text-anchor="start" x="821.89" y="-136.2" font-family="Helvetica,sans-Serif" font-size="14.00">mse = 3254.95</text>
<text text-anchor="start" x="818.78" y="-119.4" font-family="Helvetica,sans-Serif" font-size="14.00">samples = 7155</text>
<text text-anchor="start" x="822.28" y="-102.6" font-family="Helvetica,sans-Serif" font-size="14.00">value = 351.54</text>
</g>
<!-- 8&#45;&gt;12 -->
<g id="edge12" class="edge">
<title>8-&gt;12</title>
<path fill="none" stroke="black" d="M724.32,-205.84C744.89,-195.44 767.43,-184.05 788.44,-173.42"/>
<polygon fill="black" stroke="black" points="789.92,-176.59 797.27,-168.96 786.77,-170.35 789.92,-176.59"/>
</g>
<!-- 10 -->
<g id="node11" class="node">
<title>10</title>
<path fill="#f8ddc9" stroke="black" d="M644.8,-58.4C644.8,-58.4 552,-58.4 552,-58.4 546,-58.4 540,-52.4 540,-46.4 540,-46.4 540,-12 540,-12 540,-6 546,0 552,0 552,0 644.8,0 644.8,0 650.8,0 656.8,-6 656.8,-12 656.8,-12 656.8,-46.4 656.8,-46.4 656.8,-52.4 650.8,-58.4 644.8,-58.4"/>
<text text-anchor="start" x="548" y="-41.8" font-family="Helvetica,sans-Serif" font-size="14.00">mse = 2055.388</text>
<text text-anchor="start" x="548.78" y="-25" font-family="Helvetica,sans-Serif" font-size="14.00">samples = 2211</text>
<text text-anchor="start" x="548.38" y="-8.2" font-family="Helvetica,sans-Serif" font-size="14.00">value = 431.512</text>
</g>
<!-- 9&#45;&gt;10 -->
<g id="edge10" class="edge">
<title>9-&gt;10</title>
<path fill="none" stroke="black" d="M632.6,-94.04C628.15,-85.73 623.41,-76.89 618.93,-68.53"/>
<polygon fill="black" stroke="black" points="622.15,-67.13 614.34,-59.96 615.98,-70.43 622.15,-67.13"/>
</g>
<!-- 11 -->
<g id="node12" class="node">
<title>11</title>
<path fill="#fbece1" stroke="black" d="M779.8,-58.4C779.8,-58.4 687,-58.4 687,-58.4 681,-58.4 675,-52.4 675,-46.4 675,-46.4 675,-12 675,-12 675,-6 681,0 687,0 687,0 779.8,0 779.8,0 785.8,0 791.8,-6 791.8,-12 791.8,-12 791.8,-46.4 791.8,-46.4 791.8,-52.4 785.8,-58.4 779.8,-58.4"/>
<text text-anchor="start" x="683" y="-41.8" font-family="Helvetica,sans-Serif" font-size="14.00">mse = 1967.614</text>
<text text-anchor="start" x="683.78" y="-25" font-family="Helvetica,sans-Serif" font-size="14.00">samples = 5638</text>
<text text-anchor="start" x="683.38" y="-8.2" font-family="Helvetica,sans-Serif" font-size="14.00">value = 395.108</text>
</g>
<!-- 9&#45;&gt;11 -->
<g id="edge11" class="edge">
<title>9-&gt;11</title>
<path fill="none" stroke="black" d="M682.1,-94.04C689.07,-85.36 696.5,-76.12 703.48,-67.43"/>
<polygon fill="black" stroke="black" points="706.07,-69.8 709.6,-59.81 700.61,-65.41 706.07,-69.8"/>
</g>
<!-- 13 -->
<g id="node14" class="node">
<title>13</title>
<path fill="#ffffff" stroke="black" d="M914.8,-58.4C914.8,-58.4 822,-58.4 822,-58.4 816,-58.4 810,-52.4 810,-46.4 810,-46.4 810,-12 810,-12 810,-6 816,0 822,0 822,0 914.8,0 914.8,0 920.8,0 926.8,-6 926.8,-12 926.8,-12 926.8,-46.4 926.8,-46.4 926.8,-52.4 920.8,-58.4 914.8,-58.4"/>
<text text-anchor="start" x="818" y="-41.8" font-family="Helvetica,sans-Serif" font-size="14.00">mse = 2745.204</text>
<text text-anchor="start" x="818.78" y="-25" font-family="Helvetica,sans-Serif" font-size="14.00">samples = 7081</text>
<text text-anchor="start" x="818.38" y="-8.2" font-family="Helvetica,sans-Serif" font-size="14.00">value = 349.203</text>
</g>
<!-- 12&#45;&gt;13 -->
<g id="edge13" class="edge">
<title>12-&gt;13</title>
<path fill="none" stroke="black" d="M868.4,-94.04C868.4,-86.19 868.4,-77.86 868.4,-69.91"/>
<polygon fill="black" stroke="black" points="871.9,-70.14 868.4,-60.14 864.9,-70.14 871.9,-70.14"/>
</g>
<!-- 14 -->
<g id="node15" class="node">
<title>14</title>
<path fill="#eba06a" stroke="black" d="M1049.8,-58.4C1049.8,-58.4 957,-58.4 957,-58.4 951,-58.4 945,-52.4 945,-46.4 945,-46.4 945,-12 945,-12 945,-6 951,0 957,0 957,0 1049.8,0 1049.8,0 1055.8,0 1061.8,-6 1061.8,-12 1061.8,-12 1061.8,-46.4 1061.8,-46.4 1061.8,-52.4 1055.8,-58.4 1049.8,-58.4"/>
<text text-anchor="start" x="953" y="-41.8" font-family="Helvetica,sans-Serif" font-size="14.00">mse = 1508.694</text>
<text text-anchor="start" x="961.57" y="-25" font-family="Helvetica,sans-Serif" font-size="14.00">samples = 74</text>
<text text-anchor="start" x="953.38" y="-8.2" font-family="Helvetica,sans-Serif" font-size="14.00">value = 575.149</text>
</g>
<!-- 12&#45;&gt;14 -->
<g id="edge14" class="edge">
<title>12-&gt;14</title>
<path fill="none" stroke="black" d="M917.9,-94.04C930.5,-84.63 943.99,-74.56 956.46,-65.25"/>
<polygon fill="black" stroke="black" points="958.19,-68.32 964.11,-59.54 954,-62.71 958.19,-68.32"/>
</g>
</g>
</svg>