<svg xmlns="http://www.w3.org/2000/svg" xmlns:xlink="http://www.w3.org/1999/xlink" width="1550pt" height="400pt" viewBox="0.00 0.00 1550.18 400.00">
<g id="graph0" class="graph" transform="scale(1 1) rotate(0) translate(4 396)">
<title>Tree</title>
<polygon fill="white" stroke="none" points="-4,4 -4,-396 1546.18,-396 1546.18,4 -4,4"/>
<!-- 0 -->
<g id="node1" class="node">
<title>0</title>
<path fill="#f9e1cf" stroke="black" d="M848.18,-392C848.18,-392 686.11,-392 686.11,-392 680.11,-392 674.11,-386 674.11,-380 674.11,-380 674.11,-328.8 674.11,-328.8 674.11,-322.8 680.11,-316.8 686.11,-316.8 686.11,-316.8 848.18,-316.8 848.18,-316.8 854.18,-316.8 860.18,-322.8 860.18,-328.8 860.18,-328.8 860.18,-380 860.18,-380 860.18,-386 854.18,-392 848.18,-392"/>
<text text-anchor="start" x="701.77" y="-375.4" font-family="Helvetica,sans-Serif" font-size="14.00">SubFPC298 ≤ 0.436</text>
<text text-anchor="start" x="682.11" y="-358.6" font-family="Helvetica,sans-Serif" font-size="14.00">squared_error = 10947.772</text>
<text text-anchor="start" x="713.63" y="-341.8" font-family="Helvetica,sans-Serif" font-size="14.00">samples = 28734</text>
<text text-anchor="start" x="717.13" y="-325" font-family="Helvetica,sans-Serif" font-size="14.00">value = 445.026</text>
</g>
<!-- 1 -->
<g id="node2" class="node">
<title>1</title>
<path fill="#fceee4" stroke="black" d="M646.39,-280.8C646.39,-280.8 499.89,-280.8 499.89,-280.8 493.89,-280.8 487.89,-274.8 487.89,-268.8 487.89,-268.8 487.89,-217.6 487.89,-217.6 487.89,-211.6 493.89,-205.6 499.89,-205.6 499.89,-205.6 646.39,-205.6 646.39,-205.6 652.39,-205.6 658.39,-211.6 658.39,-217.6 658.39,-217.6 658.39,-268.8 658.39,-268.8 658.39,-274.8 652.39,-280.8 646.39,-280.8"/>
<text text-anchor="start" x="516.72" y="-264.2" font-family="Helvetica,sans-Serif" font-size="14.00">SubFP84 ≤ 0.643</text>
<text text-anchor="start" x="495.89" y="-247.4" font-family="Helvetica,sans-Serif" font-size="14.00">squared_error = 6906.63</text>
<text text-anchor="start" x="519.63" y="-230.6" font-family="Helvetica,sans-Serif" font-size="14.00">samples = 21718</text>
<text text-anchor="start" x="523.13" y="-213.8" font-family="Helvetica,sans-Serif" font-size="14.00">value = 417.237</text>
</g>
<!-- 0&#45;&gt;1 -->
<g id="edge1" class="edge">
<title>0-&gt;1</title>
<path fill="none" stroke="black" d="M701.46,-316.43C684.4,-306.82 665.88,-296.4 648.37,-286.54"/>
<polygon fill="black" stroke="black" points="650.5,-283.73 640.07,-281.87 647.07,-289.83 650.5,-283.73"/>
<text text-anchor="middle" x="645.49" y="-301.01" font-family="Helvetica,sans-Serif" font-size="14.00">True</text>
</g>
<!-- 8 -->
<g id="node9" class="node">
<title>8</title>
<path fill="#f0b78e" stroke="black" d="M1038.18,-280.8C1038.18,-280.8 876.11,-280.8 876.11,-280.8 870.11,-280.8 864.11,-274.8 864.11,-268.8 864.11,-268.8 864.11,-217.6 864.11,-217.6 864.11,-211.6 870.11,-205.6 876.11,-205.6 876.11,-205.6 1038.18,-205.6 1038.18,-205.6 1044.18,-205.6 1050.18,-211.6 1050.18,-217.6 1050.18,-217.6 1050.18,-268.8 1050.18,-268.8 1050.18,-274.8 1044.18,-280.8 1038.18,-280.8"/>
<text text-anchor="start" x="906.95" y="-264.2" font-family="Helvetica,sans-Serif" font-size="14.00">ExtFP595 ≤ 0.5</text>
<text text-anchor="start" x="872.11" y="-247.4" font-family="Helvetica,sans-Serif" font-size="14.00">squared_error = 13666.962</text>
<text text-anchor="start" x="907.53" y="-230.6" font-family="Helvetica,sans-Serif" font-size="14.00">samples = 7016</text>
<text text-anchor="start" x="907.13" y="-213.8" font-family="Helvetica,sans-Serif" font-size="14.00">value = 531.048</text>
</g>
<!-- 0&#45;&gt;8 -->
<g id="edge8" class="edge">
<title>0-&gt;8</title>
<path fill="none" stroke="black" d="M831.47,-316.43C848.03,-306.91 865.98,-296.6 882.99,-286.82"/>
<polygon fill="black" stroke="black" points="884.65,-289.9 891.57,-281.89 881.16,-283.83 884.65,-289.9"/>
<text text-anchor="middle" x="886.37" y="-301.07" font-family="Helvetica,sans-Serif" font-size="14.00">False</text>
</g>
<!-- 2 -->
<g id="node3" class="node">
<title>2</title>
<path fill="#fef9f5" stroke="black" d="M362.29,-169.6C362.29,-169.6 208,-169.6 208,-169.6 202,-169.6 196,-163.6 196,-157.6 196,-157.6 196,-106.4 196,-106.4 196,-100.4 202,-94.4 208,-94.4 208,-94.4 362.29,-94.4 362.29,-94.4 368.29,-94.4 374.29,-100.4 374.29,-106.4 374.29,-106.4 374.29,-157.6 374.29,-157.6 374.29,-163.6 368.29,-169.6 362.29,-169.6"/>
<text text-anchor="start" x="219.77" y="-153" font-family="Helvetica,sans-Serif" font-size="14.00">SubFPC287 ≤ 0.455</text>
<text text-anchor="start" x="204" y="-136.2" font-family="Helvetica,sans-Serif" font-size="14.00">squared_error = 5653.962</text>
<text text-anchor="start" x="231.63" y="-119.4" font-family="Helvetica,sans-Serif" font-size="14.00">samples = 16021</text>
<text text-anchor="start" x="235.13" y="-102.6" font-family="Helvetica,sans-Serif" font-size="14.00">value = 395.502</text>
</g>
<!-- 1&#45;&gt;2 -->
<g id="edge2" class="edge">
<title>1-&gt;2</title>
<path fill="none" stroke="black" d="M487.51,-209.73C455.42,-197.56 418.67,-183.63 385.37,-171"/>
<polygon fill="black" stroke="black" points="386.7,-167.76 376.11,-167.49 384.22,-174.31 386.7,-167.76"/>
</g>
<!-- 5 -->
<g id="node6" class="node">
<title>5</title>
<path fill="#f5d1b6" stroke="black" d="M646.39,-169.6C646.39,-169.6 499.89,-169.6 499.89,-169.6 493.89,-169.6 487.89,-163.6 487.89,-157.6 487.89,-157.6 487.89,-106.4 487.89,-106.4 487.89,-100.4 493.89,-94.4 499.89,-94.4 499.89,-94.4 646.39,-94.4 646.39,-94.4 652.39,-94.4 658.39,-100.4 658.39,-106.4 658.39,-106.4 658.39,-157.6 658.39,-157.6 658.39,-163.6 652.39,-169.6 646.39,-169.6"/>
<text text-anchor="start" x="533.06" y="-153" font-family="Helvetica,sans-Serif" font-size="14.00">FP145 ≤ 0.5</text>
<text text-anchor="start" x="495.89" y="-136.2" font-family="Helvetica,sans-Serif" font-size="14.00">squared_error = 5365.05</text>
<text text-anchor="start" x="523.53" y="-119.4" font-family="Helvetica,sans-Serif" font-size="14.00">samples = 5697</text>
<text text-anchor="start" x="523.13" y="-102.6" font-family="Helvetica,sans-Serif" font-size="14.00">value = 478.359</text>
</g>
<!-- 1&#45;&gt;5 -->
<g id="edge5" class="edge">
<title>1-&gt;5</title>
<path fill="none" stroke="black" d="M573.14,-205.23C573.14,-197.58 573.14,-189.41 573.14,-181.43"/>
<polygon fill="black" stroke="black" points="576.64,-181.45 573.14,-171.45 569.64,-181.45 576.64,-181.45"/>
</g>
<!-- 3 -->
<g id="node4" class="node">
<title>3</title>
<path fill="#ffffff" stroke="black" d="M166.29,-58.4C166.29,-58.4 12,-58.4 12,-58.4 6,-58.4 0,-52.4 0,-46.4 0,-46.4 0,-12 0,-12 0,-6 6,0 12,0 12,0 166.29,0 166.29,0 172.29,0 178.29,-6 178.29,-12 178.29,-12 178.29,-46.4 178.29,-46.4 178.29,-52.4 172.29,-58.4 166.29,-58.4"/>
<text text-anchor="start" x="8" y="-41.8" font-family="Helvetica,sans-Serif" font-size="14.00">squared_error = 4229.596</text>
<text text-anchor="start" x="35.63" y="-25" font-family="Helvetica,sans-Serif" font-size="14.00">samples = 13123</text>
<text text-anchor="start" x="39.13" y="-8.2" font-family="Helvetica,sans-Serif" font-size="14.00">value = 382.307</text>
</g>
<!-- 2&#45;&gt;3 -->
<g id="edge3" class="edge">
<title>2-&gt;3</title>
<path fill="none" stroke="black" d="M213.27,-94.04C194.19,-84.22 173.68,-73.68 154.94,-64.04"/>
<polygon fill="black" stroke="black" points="156.57,-60.94 146.08,-59.48 153.37,-67.17 156.57,-60.94"/>
</g>
<!-- 4 -->
<g id="node5" class="node">
<title>4</title>
<path fill="#f8dcc8" stroke="black" d="M362.29,-58.4C362.29,-58.4 208,-58.4 208,-58.4 202,-58.4 196,-52.4 196,-46.4 196,-46.4 196,-12 196,-12 196,-6 202,0 208,0 208,0 362.29,0 362.29,0 368.29,0 374.29,-6 374.29,-12 374.29,-12 374.29,-46.4 374.29,-46.4 374.29,-52.4 368.29,-58.4 362.29,-58.4"/>
<text text-anchor="start" x="204" y="-41.8" font-family="Helvetica,sans-Serif" font-size="14.00">squared_error = 7745.198</text>
<text text-anchor="start" x="235.53" y="-25" font-family="Helvetica,sans-Serif" font-size="14.00">samples = 2898</text>
<text text-anchor="start" x="235.13" y="-8.2" font-family="Helvetica,sans-Serif" font-size="14.00">value = 455.254</text>
</g>
<!-- 2&#45;&gt;4 -->
<g id="edge4" class="edge">
<title>2-&gt;4</title>
<path fill="none" stroke="black" d="M285.14,-94.04C285.14,-86.19 285.14,-77.86 285.14,-69.91"/>
<polygon fill="black" stroke="black" points="288.64,-70.14 285.14,-60.14 281.64,-70.14 288.64,-70.14"/>
</g>
<!-- 6 -->
<g id="node7" class="node">
<title>6</title>
<path fill="#f8dcc8" stroke="black" d="M550.39,-58.4C550.39,-58.4 403.89,-58.4 403.89,-58.4 397.89,-58.4 391.89,-52.4 391.89,-46.4 391.89,-46.4 391.89,-12 391.89,-12 391.89,-6 397.89,0 403.89,0 403.89,0 550.39,0 550.39,0 556.39,0 562.39,-6 562.39,-12 562.39,-12 562.39,-46.4 562.39,-46.4 562.39,-52.4 556.39,-58.4 550.39,-58.4"/>
<text text-anchor="start" x="399.89" y="-41.8" font-family="Helvetica,sans-Serif" font-size="14.00">squared_error = 3895.14</text>
<text text-anchor="start" x="427.53" y="-25" font-family="Helvetica,sans-Serif" font-size="14.00">samples = 3527</text>
<text text-anchor="start" x="427.13" y="-8.2" font-family="Helvetica,sans-Serif" font-size="14.00">value = 454.438</text>
</g>
<!-- 5&#45;&gt;6 -->
<g id="edge6" class="edge">
<title>5-&gt;6</title>
<path fill="none" stroke="black" d="M537.94,-94.04C529.51,-85.18 520.5,-75.73 512.08,-66.88"/>
<polygon fill="black" stroke="black" points="514.69,-64.55 505.26,-59.73 509.63,-69.38 514.69,-64.55"/>
</g>
<!-- 7 -->
<g id="node8" class="node">
<title>7</title>
<path fill="#f2be98" stroke="black" d="M746.29,-58.4C746.29,-58.4 592,-58.4 592,-58.4 586,-58.4 580,-52.4 580,-46.4 580,-46.4 580,-12 580,-12 580,-6 586,0 592,0 592,0 746.29,0 746.29,0 752.29,0 758.29,-6 758.29,-12 758.29,-12 758.29,-46.4 758.29,-46.4 758.29,-52.4 752.29,-58.4 746.29,-58.4"/>
<text text-anchor="start" x="588" y="-41.8" font-family="Helvetica,sans-Serif" font-size="14.00">squared_error = 5312.606</text>
<text text-anchor="start" x="619.53" y="-25" font-family="Helvetica,sans-Serif" font-size="14.00">samples = 2170</text>
<text text-anchor="start" x="619.13" y="-8.2" font-family="Helvetica,sans-Serif" font-size="14.00">value = 517.237</text>
</g>
<!-- 5&#45;&gt;7 -->
<g id="edge7" class="edge">
<title>5-&gt;7</title>
<path fill="none" stroke="black" d="M608.34,-94.04C616.78,-85.18 625.78,-75.73 634.21,-66.88"/>
<polygon fill="black" stroke="black" points="636.66,-69.38 641.02,-59.73 631.59,-64.55 636.66,-69.38"/>
</g>
<!-- 9 -->
<g id="node10" class="node">
<title>9</title>
<path fill="#f6d2b8" stroke="black" d="M1038.18,-169.6C1038.18,-169.6 876.11,-169.6 876.11,-169.6 870.11,-169.6 864.11,-163.6 864.11,-157.6 864.11,-157.6 864.11,-106.4 864.11,-106.4 864.11,-100.4 870.11,-94.4 876.11,-94.4 876.11,-94.4 1038.18,-94.4 1038.18,-94.4 1044.18,-94.4 1050.18,-100.4 1050.18,-106.4 1050.18,-106.4 1050.18,-157.6 1050.18,-157.6 1050.18,-163.6 1044.18,-169.6 1038.18,-169.6"/>
<text text-anchor="start" x="906.95" y="-153" font-family="Helvetica,sans-Serif" font-size="14.00">ExtFP845 ≤ 0.5</text>
<text text-anchor="start" x="872.11" y="-136.2" font-family="Helvetica,sans-Serif" font-size="14.00">squared_error = 10547.322</text>
<text text-anchor="start" x="907.53" y="-119.4" font-family="Helvetica,sans-Serif" font-size="14.00">samples = 3448</text>
<text text-anchor="start" x="907.13" y="-102.6" font-family="Helvetica,sans-Serif" font-size="14.00">value = 475.604</text>
</g>
<!-- 8&#45;&gt;9 -->
<g id="edge9" class="edge">
<title>8-&gt;9</title>
<path fill="none" stroke="black" d="M957.14,-205.23C957.14,-197.58 957.14,-189.41 957.14,-181.43"/>
<polygon fill="black" stroke="black" points="960.64,-181.45 957.14,-171.45 953.64,-181.45 960.64,-181.45"/>
</g>
<!-- 12 -->
<g id="node13" class="node">
<title>12</title>
<path fill="#eb9d65" stroke="black" d="M1334.18,-169.6C1334.18,-169.6 1172.11,-169.6 1172.11,-169.6 1166.11,-169.6 1160.11,-163.6 1160.11,-157.6 1160.11,-157.6 1160.11,-106.4 1160.11,-106.4 1160.11,-100.4 1166.11,-94.4 1172.11,-94.4 1172.11,-94.4 1334.18,-94.4 1334.18,-94.4 1340.18,-94.4 1346.18,-100.4 1346.18,-106.4 1346.18,-106.4 1346.18,-157.6 1346.18,-157.6 1346.18,-163.6 1340.18,-169.6 1334.18,-169.6"/>
<text text-anchor="start" x="1213.06" y="-153" font-family="Helvetica,sans-Serif" font-size="14.00">FP915 ≤ 0.5</text>
<text text-anchor="start" x="1168.11" y="-136.2" font-family="Helvetica,sans-Serif" font-size="14.00">squared_error = 10840.375</text>
<text text-anchor="start" x="1203.53" y="-119.4" font-family="Helvetica,sans-Serif" font-size="14.00">samples = 3568</text>
<text text-anchor="start" x="1203.13" y="-102.6" font-family="Helvetica,sans-Serif" font-size="14.00">value = 584.626</text>
</g>
<!-- 8&#45;&gt;12 -->
<g id="edge12" class="edge">
<title>8-&gt;12</title>
<path fill="none" stroke="black" d="M1050.39,-207.8C1081.76,-196.23 1116.94,-183.25 1149.08,-171.39"/>
<polygon fill="black" stroke="black" points="1150.26,-174.69 1158.43,-167.94 1147.84,-168.12 1150.26,-174.69"/>
</g>
<!-- 10 -->
<g id="node11" class="node">
<title>10</title>
<path fill="#fbece1" stroke="black" d="M942.29,-58.4C942.29,-58.4 788,-58.4 788,-58.4 782,-58.4 776,-52.4 776,-46.4 776,-46.4 776,-12 776,-12 776,-6 782,0 788,0 788,0 942.29,0 942.29,0 948.29,0 954.29,-6 954.29,-12 954.29,-12 954.29,-46.4 954.29,-46.4 954.29,-52.4 948.29,-58.4 942.29,-58.4"/>
<text text-anchor="start" x="784" y="-41.8" font-family="Helvetica,sans-Serif" font-size="14.00">squared_error = 6876.733</text>
<text text-anchor="start" x="815.53" y="-25" font-family="Helvetica,sans-Serif" font-size="14.00">samples = 1673</text>
<text text-anchor="start" x="819.02" y="-8.2" font-family="Helvetica,sans-Serif" font-size="14.00">value = 422.32</text>
</g>
<!-- 9&#45;&gt;10 -->
<g id="edge10" class="edge">
<title>9-&gt;10</title>
<path fill="none" stroke="black" d="M923.41,-94.04C915.32,-85.18 906.7,-75.73 898.62,-66.88"/>
<polygon fill="black" stroke="black" points="901.44,-64.78 892.11,-59.75 896.27,-69.49 901.44,-64.78"/>
</g>
<!-- 11 -->
<g id="node12" class="node">
<title>11</title>
<path fill="#f1ba92" stroke="black" d="M1138.29,-58.4C1138.29,-58.4 984,-58.4 984,-58.4 978,-58.4 972,-52.4 972,-46.4 972,-46.4 972,-12 972,-12 972,-6 978,0 984,0 984,0 1138.29,0 1138.29,0 1144.29,0 1150.29,-6 1150.29,-12 1150.29,-12 1150.29,-46.4 1150.29,-46.4 1150.29,-52.4 1144.29,-58.4 1138.29,-58.4"/>
<text text-anchor="start" x="980" y="-41.8" font-family="Helvetica,sans-Serif" font-size="14.00">squared_error = 8808.681</text>
<text text-anchor="start" x="1011.53" y="-25" font-family="Helvetica,sans-Serif" font-size="14.00">samples = 1775</text>
<text text-anchor="start" x="1011.13" y="-8.2" font-family="Helvetica,sans-Serif" font-size="14.00">value = 525.826</text>
</g>
<!-- 9&#45;&gt;11 -->
<g id="edge11" class="edge">
<title>9-&gt;11</title>
<path fill="none" stroke="black" d="M995.28,-94.04C1004.51,-85.09 1014.37,-75.53 1023.58,-66.61"/>
<polygon fill="black" stroke="black" points="1025.98,-69.16 1030.72,-59.68 1021.11,-64.13 1025.98,-69.16"/>
</g>
<!-- 13 -->
<g id="node14" class="node">
<title>13</title>
<path fill="#efb286" stroke="black" d="M1326.39,-58.4C1326.39,-58.4 1179.89,-58.4 1179.89,-58.4 1173.89,-58.4 1167.89,-52.4 1167.89,-46.4 1167.89,-46.4 1167.89,-12 1167.89,-12 1167.89,-6 1173.89,0 1179.89,0 1179.89,0 1326.39,0 1326.39,0 1332.39,0 1338.39,-6 1338.39,-12 1338.39,-12 1338.39,-46.4 1338.39,-46.4 1338.39,-52.4 1332.39,-58.4 1326.39,-58.4"/>
<text text-anchor="start" x="1175.89" y="-41.8" font-family="Helvetica,sans-Serif" font-size="14.00">squared_error = 6555.11</text>
<text text-anchor="start" x="1203.53" y="-25" font-family="Helvetica,sans-Serif" font-size="14.00">samples = 2052</text>
<text text-anchor="start" x="1203.13" y="-8.2" font-family="Helvetica,sans-Serif" font-size="14.00">value = 541.558</text>
</g>
<!-- 12&#45;&gt;13 -->
<g id="edge13" class="edge">
<title>12-&gt;13</title>
<path fill="none" stroke="black" d="M1253.14,-94.04C1253.14,-86.19 1253.14,-77.86 1253.14,-69.91"/>
<polygon fill="black" stroke="black" points="1256.64,-70.14 1253.14,-60.14 1249.64,-70.14 1256.64,-70.14"/>
</g>
<!-- 14 -->
<g id="node15" class="node">
<title>14</title>
<path fill="#e58139" stroke="black" d="M1530.18,-58.4C1530.18,-58.4 1368.11,-58.4 1368.11,-58.4 1362.11,-58.4 1356.11,-52.4 1356.11,-46.4 1356.11,-46.4 1356.11,-12 1356.11,-12 1356.11,-6 1362.11,0 1368.11,0 1368.11,0 1530.18,0 1530.18,0 1536.18,0 1542.18,-6 1542.18,-12 1542.18,-12 1542.18,-46.4 1542.18,-46.4 1542.18,-52.4 1536.18,-58.4 1530.18,-58.4"/>
<text text-anchor="start" x="1364.11" y="-41.8" font-family="Helvetica,sans-Serif" font-size="14.00">squared_error = 10731.702</text>
<text text-anchor="start" x="1399.53" y="-25" font-family="Helvetica,sans-Serif" font-size="14.00">samples = 1516</text>
<text text-anchor="start" x="1399.13" y="-8.2" font-family="Helvetica,sans-Serif" font-size="14.00">value = 642.922</text>
</g>
<!-- 12&#45;&gt;14 -->
<g id="edge14" class="edge">
<title>12-&gt;14</title>
<path fill="none" stroke="black" d="M1325.01,-94.04C1344.09,-84.22 1364.6,-73.68 1383.34,-64.04"/>
<polygon fill="black" stroke="black" points="1384.91,-67.17 1392.21,-59.48 1381.71,-60.94 1384.91,-67.17"/>
</g>
</g>
</svg>